# File created by Blade
# Date/Time:  Tue Apr 07 20:49:23 2015
# Frame Rate: 120.000 fps
#------------------------------------------------------
:FULLY-SPECIFIED
:DEGREES
604
root 1.063568 34.227533 -5.796896 -19.128876 48.906570 -113.344558
Spine -43.994215 -10.632654 35.524741
Head -11.701708 26.555497 36.669255
LeftShoulder -24.463289 37.437874 31.734791
LeftArm 79.262114 -70.700111 -72.676522
LeftForeArm 14.631747 -0.000000 12.594813
LeftHand 6.989156 -0.000000 15.178246
LeftHandThumb1 -26.253704 0.000000 33.147579
RightShoulder -23.958477 -7.484017 -26.767354
RightArm -21.023766 36.473027 23.659272
RightForeArm 62.455197 -0.000000 -3.078397
RightHand 2.873928 -0.000000 16.732680
RightHandThumb1 -24.326973 -0.000000 -32.862282
LeftUpLeg -84.534381 38.745255 22.712575
LeftLeg -7.483758 -0.000000 0.000000
LeftFoot 5.174119 11.885390 -9.877631
LeftToeBase -11.901392 -0.000000 0.000000
RightUpLeg 32.572007 20.660315 -17.316735
RightLeg 61.095961 -0.000000 -0.000000
RightFoot 55.014944 10.060059 -0.556590
RightToeBase 6.184256 -0.000000 -0.000000
605
root 1.074286 34.213387 -5.789939 -19.033443 48.829142 -113.377355
Spine -44.003981 -10.602425 35.540580
Head -11.812555 26.537903 36.560669
LeftShoulder -24.477753 37.461234 31.713166
LeftArm 79.332869 -70.671321 -72.856103
LeftForeArm 14.681731 -0.000000 12.740264
LeftHand 6.952880 -0.000000 15.181719
LeftHandThumb1 -26.253704 0.000000 33.147579
RightShoulder -23.956631 -7.498855 -26.778346
RightArm -21.053133 36.491029 23.673353
RightForeArm 62.536757 -0.000000 -3.028058
RightHand 2.845209 -0.000000 16.781532
RightHandThumb1 -24.326973 -0.000000 -32.862282
LeftUpLeg -84.202731 38.706453 23.100856
LeftLeg -7.917354 -0.000000 0.000000
LeftFoot 5.611245 12.672627 -8.294555
LeftToeBase -12.287296 -0.000000 0.000000
RightUpLeg 32.549694 20.701275 -17.257567
RightLeg 61.126188 -0.000000 -0.000000
RightFoot 55.002575 10.012556 -0.537776
RightToeBase 6.112253 -0.000000 -0.000000
606
root 1.085940 34.199191 -5.781259 -18.993828 48.721826 -113.464945
Spine -43.988757 -10.571875 35.612500
Head -11.911826 26.555029 36.433171
LeftShoulder -24.474375 37.451120 31.696391
LeftArm 79.279409 -70.663186 -72.912880
LeftForeArm 14.758268 -0.000000 12.828121
LeftHand 6.898748 -0.000000 15.262178
LeftHandThumb1 -26.253704 0.000000 33.147579
RightShoulder -23.939082 -7.440441 -26.825709
RightArm -21.137074 36.502654 23.644181
RightForeArm 62.470613 -0.000000 -2.956189
RightHand 2.866407 -0.000000 16.711254
RightHandThumb1 -24.326973 -0.000000 -32.862282
LeftUpLeg -83.872402 38.714648 23.537047
LeftLeg -8.279302 -0.000000 0.000000
LeftFoot 5.949608 13.313290 -7.055681
LeftToeBase -12.374564 -0.000000 0.000000
RightUpLeg 32.533090 20.766056 -17.132389
RightLeg 61.151363 -0.000000 -0.000000
RightFoot 55.046975 9.921480 -0.495470
RightToeBase 6.384743 -0.000000 -0.000000
607
root 1.097474 34.186837 -5.772143 -18.960767 48.607798 -113.589917
Spine -43.982338 -10.556516 35.727879
Head -12.035324 26.611942 36.338274
LeftShoulder -24.519122 37.457001 31.653445
LeftArm 79.112343 -70.661027 -72.826439
LeftForeArm 14.753330 -0.000000 12.858245
LeftHand 6.927538 -0.000000 15.367430
LeftHandThumb1 -26.253704 0.000000 33.147579
RightShoulder -23.917318 -7.422377 -26.814692
RightArm -21.132779 36.525643 23.650238
RightForeArm 62.413185 -0.000000 -2.908158
RightHand 2.880181 0.000000 16.649731
RightHandThumb1 -24.326973 -0.000000 -32.862282
LeftUpLeg -83.685452 38.771275 23.837279
LeftLeg -8.581277 -0.000000 0.000000
LeftFoot 6.232113 13.702047 -6.076171
LeftToeBase -12.498533 -0.000000 0.000000
RightUpLeg 32.491175 20.828447 -16.971179
RightLeg 61.189402 -0.000000 -0.000000
RightFoot 55.040558 9.979466 -0.491513
RightToeBase 6.266208 -0.000000 -0.000000
608
root 1.108915 34.175567 -5.765804 -18.830903 48.558641 -113.650100
Spine -44.054221 -10.532505 35.747625
Head -12.128082 26.629892 36.305469
LeftShoulder -24.475621 37.468748 31.701235
LeftArm 78.990588 -70.675151 -72.837004
LeftForeArm 14.818465 0.000000 12.874777
LeftHand 6.962332 0.000000 15.406333
LeftHandThumb1 -26.253704 0.000000 33.147579
RightShoulder -23.927733 -7.453281 -26.747600
RightArm -21.089388 36.549363 23.660908
RightForeArm 62.394469 0.000000 -2.886237
RightHand 2.974304 -0.000000 16.553500
RightHandThumb1 -24.326973 -0.000000 -32.862282
LeftUpLeg -83.596938 38.824230 23.990364
LeftLeg -8.886969 -0.000000 0.000000
LeftFoot 6.555571 13.974456 -5.275627
LeftToeBase -12.803942 -0.000000 0.000000
RightUpLeg 32.406161 20.830114 -16.896735
RightLeg 61.221271 -0.000000 -0.000000
RightFoot 55.074560 10.002383 -0.383222
RightToeBase 6.294970 -0.000000 -0.000000
609
root 1.118513 34.165777 -5.760901 -18.692596 48.524456 -113.677269
Spine -44.101317 -10.564775 35.755614
Head -12.227034 26.703899 36.318902
LeftShoulder -24.503594 37.491405 31.683690
LeftArm 79.047246 -70.729651 -72.977176
LeftForeArm 14.917042 -0.000000 12.860075
LeftHand 6.955017 -0.000000 15.409929
LeftHandThumb1 -26.253704 0.000000 33.147579
RightShoulder -23.901986 -7.408175 -26.677131
RightArm -21.160377 36.668041 23.573059
RightForeArm 62.253695 0.000000 -2.789969
RightHand 2.934585 0.000000 16.397515
RightHandThumb1 -24.326973 -0.000000 -32.862282
LeftUpLeg -83.504399 38.885215 24.104082
LeftLeg -9.214666 -0.000000 0.000000
LeftFoot 6.887367 14.187798 -4.656610
LeftToeBase -13.042669 -0.000000 0.000000
RightUpLeg 32.333065 20.818050 -16.867711
RightLeg 61.247459 -0.000000 -0.000000
RightFoot 55.184347 10.098760 -0.268768
RightToeBase 5.826227 -0.000000 -0.000000
610
root 1.125648 34.156565 -5.756570 -18.520844 48.511416 -113.659161
Spine -44.143029 -10.582529 35.691751
Head -12.369257 26.723549 36.331788
LeftShoulder -24.510768 37.480676 31.683295
LeftArm 79.063579 -70.773891 -73.031931
LeftForeArm 14.927695 -0.000000 12.777585
LeftHand 6.974939 0.000000 15.398944
LeftHandThumb1 -26.253704 0.000000 33.147579
RightShoulder -23.952172 -7.306468 -26.624605
RightArm -21.131716 36.598893 23.556240
RightForeArm 62.344320 -0.000000 -2.804436
RightHand 3.006042 0.000000 16.316754
RightHandThumb1 -24.326973 -0.000000 -32.862282
LeftUpLeg -83.426784 38.963480 24.174307
LeftLeg -9.498553 -0.000000 0.000000
LeftFoot 7.125570 14.274836 -4.265606
LeftToeBase -13.179764 -0.000000 0.000000
RightUpLeg 32.263144 20.792929 -16.894953
RightLeg 61.275755 -0.000000 -0.000000
RightFoot 55.275412 10.145887 -0.115730
RightToeBase 5.684550 -0.000000 -0.000000
611
root 1.131864 34.149274 -5.756386 -18.231657 48.580907 -113.533956
Spine -44.257626 -10.637375 35.522618
Head -12.447275 26.740727 36.427238
LeftShoulder -24.548134 37.495185 31.650307
LeftArm 79.211339 -70.806428 -73.134453
LeftForeArm 14.908563 -0.000000 12.644922
LeftHand 6.955762 0.000000 15.527425
LeftHandThumb1 -26.253704 0.000000 33.147579
RightShoulder -23.991005 -7.247909 -26.518925
RightArm -21.132745 36.578095 23.514125
RightForeArm 62.346678 -0.000000 -2.776565
RightHand 3.024241 -0.000000 16.330030
RightHandThumb1 -24.326973 -0.000000 -32.862282
LeftUpLeg -83.363804 38.986751 24.156139
LeftLeg -9.846333 -0.000000 0.000000
LeftFoot 7.463782 14.444838 -3.836207
LeftToeBase -13.450833 -0.000000 0.000000
RightUpLeg 32.161607 20.682700 -17.078598
RightLeg 61.314721 -0.000000 -0.000000
RightFoot 55.305790 10.312557 -0.045841
RightToeBase 5.563369 -0.000000 -0.000000
612
root 1.136941 34.142543 -5.756680 -17.909630 48.682413 -113.391157
Spine -44.401045 -10.693491 35.331740
Head -12.554667 26.731918 36.498047
LeftShoulder -24.583469 37.460583 31.630624
LeftArm 79.343380 -70.812320 -73.228945
LeftForeArm 14.904533 -0.000000 12.498009
LeftHand 6.946962 -0.000000 15.718801
LeftHandThumb1 -26.253704 0.000000 33.147579
RightShoulder -24.114429 -7.352343 -26.347043
RightArm -20.949364 36.705755 23.580052
RightForeArm 62.382561 -0.000000 -2.758367
RightHand 3.074761 -0.000000 16.329296
RightHandThumb1 -24.326973 -0.000000 -32.862282
LeftUpLeg -83.302338 38.991121 24.139898
LeftLeg -10.198279 -0.000000 0.000000
LeftFoot 7.769403 14.641297 -3.470967
LeftToeBase -13.611930 -0.000000 0.000000
RightUpLeg 32.061045 20.556770 -17.286044
RightLeg 61.351846 -0.000000 -0.000000
RightFoot 55.383596 10.316948 0.112113
RightToeBase 5.383465 -0.000000 -0.000000
613
root 1.139497 34.136492 -5.756968 -17.603230 48.786258 -113.229533
Spine -44.521653 -10.762214 35.127517
Head -12.625531 26.729031 36.545627
LeftShoulder -24.597731 37.464895 31.599493
LeftArm 79.525628 -70.841475 -73.400230
LeftForeArm 14.936248 0.000000 12.397381
LeftHand 6.946137 -0.000000 15.795038
LeftHandThumb1 -26.253704 0.000000 33.147579
RightShoulder -24.112020 -7.260791 -26.314880
RightArm -21.158270 36.792646 23.445714
RightForeArm 62.338125 -0.000000 -2.616818
RightHand 3.090180 -0.000000 16.303980
RightHandThumb1 -24.326973 -0.000000 -32.862282
LeftUpLeg -83.193962 38.976580 24.147647
LeftLeg -10.542872 -0.000000 0.000000
LeftFoot 8.055611 14.858911 -3.061825
LeftToeBase -13.630030 -0.000000 0.000000
RightUpLeg 31.996912 20.443814 -17.498065
RightLeg 61.406858 -0.000000 -0.000000
RightFoot 55.404703 10.288320 0.198255
RightToeBase 5.299035 -0.000000 -0.000000
614
root 1.142116 34.130050 -5.756774 -17.277340 48.886209 -113.050478
Spine -44.652337 -10.824099 34.929316
Head -12.656515 26.714742 36.589024
LeftShoulder -24.617318 37.462155 31.575199
LeftArm 79.668257 -70.854347 -73.572989
LeftForeArm 14.936927 0.000000 12.338039
LeftHand 6.977477 -0.000000 15.665804
LeftHandThumb1 -26.253704 0.000000 33.147579
RightShoulder -24.117951 -7.189689 -26.323417
RightArm -21.313603 36.837614 23.383036
RightForeArm 62.226231 0.000000 -2.460346
RightHand 3.078312 -0.000000 16.332094
RightHandThumb1 -24.326973 -0.000000 -32.862282
LeftUpLeg -83.041324 38.957899 24.212464
LeftLeg -10.887138 -0.000000 0.000000
LeftFoot 8.359824 15.137683 -2.539127
LeftToeBase -13.657431 -0.000000 0.000000
RightUpLeg 31.943663 20.343139 -17.712868
RightLeg 61.453479 -0.000000 -0.000000
RightFoot 55.416712 10.273244 0.177983
RightToeBase 5.347478 -0.000000 -0.000000
615
root 1.142602 34.121960 -5.754710 -17.016115 48.944915 -112.901405
Spine -44.720382 -10.871009 34.762071
Head -12.717756 26.660605 36.565730
LeftShoulder -24.616354 37.470621 31.564245
LeftArm 79.914279 -70.878802 -73.923652
LeftForeArm 15.062327 -0.000000 12.335877
LeftHand 6.903136 -0.000000 15.665885
LeftHandThumb1 -26.253704 0.000000 33.147579
RightShoulder -24.135677 -7.149519 -26.359773
RightArm -21.431629 36.901468 23.361600
RightForeArm 62.137331 -0.000000 -2.287548
RightHand 3.101053 0.000000 16.257236
RightHandThumb1 -24.326973 -0.000000 -32.862282
LeftUpLeg -82.833983 38.948554 24.347213
LeftLeg -11.226495 -0.000000 0.000000
LeftFoot 8.667912 15.445684 -1.972736
LeftToeBase -13.728955 -0.000000 0.000000
RightUpLeg 31.955424 20.311646 -17.855934
RightLeg 61.466234 -0.000000 -0.000000
RightFoot 55.365626 10.272042 0.118648
RightToeBase 5.459784 -0.000000 -0.000000
